<?xml version="1.0" standalone="no"?><!DOCTYPE svg PUBLIC "-//W3C//DTD SVG 1.1//EN" "http://www.w3.org/Graphics/SVG/1.1/DTD/svg11.dtd"><svg t="1746206150718" class="icon" viewBox="0 0 1755 1024" version="1.1" xmlns="http://www.w3.org/2000/svg" p-id="1960" xmlns:xlink="http://www.w3.org/1999/xlink" width="342.7734375" height="200"><path d="M567.5801828 123.88933596h85.2932431a40.35723061 40.35723061 0 0 0 22.76575004-8.49734923l28.83584-25.19171477 51.59770644 80.43095737a38.85168261 38.85168261 0 0 0 32.7828872 17.91511514h3.6467143a38.84909353 38.84909353 0 0 0 32.47349253-24.58587085l26.71020816-101.99278681 27.31993568 95.9214023v2.73147578a39.14683733 39.14683733 0 0 0 31.26698289 24.19492026 39.16754995 39.16754995 0 0 0 36.42442333-15.39335459l39.15201551-73.756318 16.99469842 16.68918741a38.85427168 38.85427168 0 0 0 27.31864114 11.23400311h74.36863463c16.7668597 0 30.35174432-13.59524093 30.35174431-30.3543334 0-16.7668597-13.58488462-30.35433339-30.35174431-30.35433339h-64.6531249l-30.3517443-30.35303887a39.16237179 39.16237179 0 0 0-30.55110321-10.98674629 39.16754995 39.16754995 0 0 0-28.33744277 15.8438539l-27.61897403 51.6002955-34.90851903-123.8407092a38.84520992 38.84520992 0 0 0-36.12150139-24.58845995 38.84262083 38.84262083 0 0 0-36.11761777 24.58845995l-34.30267514 131.12766514-38.24066053-60.70737224a39.18567348 39.18567348 0 0 0-26.41375891-17.60572051 39.75915394 39.75915394 0 0 0-30.35303885 8.80415479l-41.58704198 36.42053973h-77.39655963a30.35692247 30.35692247 0 0 0-21.46344455 51.81777792 30.36339517 30.36339517 0 0 0 21.46603362 8.8882998zM533.40048883 830.75513016a87.031808 87.031808 0 1 0 174.06232145 0 87.031808 87.031808 0 1 0-174.06232145 0zM964.65131778 830.75513016a87.031808 87.031808 0 1 0 174.06232145 0 87.031808 87.031808 0 1 0-174.06232145 0z" fill="#42b983" p-id="1961"></path><path d="M1577.55046246 835.66919744a60.72937939 60.72937939 0 0 0-44.2939215-18.19861902h-76.79201026c-4.25255822-196.08112293-87.11206937-333.88990009-221.88127067-418.27178823l148.73079655-307.48131936c27.4053752-2.00912339 50.04684958-22.17544059 55.19522828-49.16397449a60.72420125 60.72420125 0 0 0-33.21137935-66.04086992 60.71772855 60.71772855 0 0 0-72.38540199 14.99852041 60.7229067 60.7229067 0 0 0-4.23961284 73.79644871l-147.81944162 305.05535463a807.14461235 807.14461235 0 0 0-347.2404733-68.60017208 806.26691539 806.26691539 0 0 0-348.15312276 70.72321485L336.11285622 68.95042624c15.32086045-22.79681897 13.41659465-53.03723298-4.63315246-73.73948901a60.70996133 60.70996133 0 1 0-49.99895169 100.45616986l151.76778337 307.48002481c-133.8591409 84.38059362-215.51732053 223.09554757-219.152384 418.57988836h-76.19263906a60.70089955 60.70089955 0 0 0-60.70478316 60.70996133v151.75872158a60.70089955 60.70089955 0 0 0 60.70478316 60.70866677h75.57902792v74.67155659c0 50.29669547 40.77407195 91.06429472 91.06947286 91.06429471l445.26679484-0.88934779-24.28294891-42.56959652h221.03982079l-24.09006269 42.22136573 444.43311217-0.88805326c50.29540093 0 91.06300018-40.77148286 91.06300017-91.06170563v-74.66767297h76.18875546c33.52336308 0 60.70607771-27.17753648 60.70607771-60.7060777v-151.77166697a60.6750088 60.6750088 0 0 0-17.32610024-44.63826869zM215.6340629 1043.80117714h-83.78251694V875.99277007h83.78251694v167.81099614z m1009.99228681-202.05541706c-9.74787318 79.14806992-77.49882817 138.26574917-157.23202938 137.20811141H589.11741603a151.79367411 151.79367411 0 0 1-112.81512676-49.47336913 151.78202327 151.78202327 0 0 1-38.95265659-116.86962062c9.74528411-79.14289177 77.49753363-138.25798195 157.23073485-137.19257695h479.2769043a151.73024174 151.73024174 0 0 1 112.81771584 49.47336914 151.70435097 151.70435097 0 0 1 38.95136204 116.85408615z m315.86604373 202.05541706h-83.78769508V875.99277007h83.78769508v167.81099614z" fill="#42b983" p-id="1962"></path></svg>